PathFileType	4	(X/Y/Z)	tour_average_tracked.trc
DataRate	CameraRate	NumFrames	NumMarkers	Units	OrigDataRate	OrigDataStartFrame	OrigNumFrames
360.00	360.00	7	34	m	360.00	82	654
Frame#	Time	WaistLeft			WaistRight			WaistLBack			WaistRBack			BackTop			BackLeft			BackRight			HeadTop			HeadFront			HeadSide			LShoulderTop			LShoulderBack			LElbowOut			LUArmHigh			LWristTop			RShoulderTop			RShoulderBack			RElbowOut			RUArmHigh			RWristTop			LKneeOut			LToeIn			LToeOut			LAnkleOut			RKneeOut			RToeIn			RToeOut			RAnkleOut			Marker_2:2:1			Marker_2:2:2			Marker_2:2:3			Marker_3:3:1			Marker_3:3:2			Marker_3:3:3		
		X1	Y1	Z1	X2	Y2	Z2	X3	Y3	Z3	X4	Y4	Z4	X5	Y5	Z5	X6	Y6	Z6	X7	Y7	Z7	X8	Y8	Z8	X9	Y9	Z9	X10	Y10	Z10	X11	Y11	Z11	X12	Y12	Z12	X13	Y13	Z13	X14	Y14	Z14	X15	Y15	Z15	X16	Y16	Z16	X17	Y17	Z17	X18	Y18	Z18	X19	Y19	Z19	X20	Y20	Z20	X21	Y21	Z21	X22	Y22	Z22	X23	Y23	Z23	X24	Y24	Z24	X25	Y25	Z25	X26	Y26	Z26	X27	Y27	Z27	X28	Y28	Z28	X29	Y29	Z29	X30	Y30	Z30	X31	Y31	Z31	X32	Y32	Z32	X33	Y33	Z33	X34	Y34	Z34

82	0.225000000	1.097400	1.005311	0.118636	1.098649	1.021812	-0.225758	1.233437	1.060039	0.032913	1.241926	1.060941	-0.136023	0.920988	1.496785	-0.094840	1.056848	1.382001	0.015545	1.053292	1.362231	-0.166380	0.657217	1.665659	-0.098051	0.578677	1.531205	-0.097423	0.698867	1.603072	0.012630	0.813420	1.421357	0.113458	0.963930	1.481300	0.065435	0.933184	1.100169	0.119527	0.945794	1.258002	0.166243	0.828212	0.860047	0.041382	NaN	NaN	NaN	0.928512	1.438252	-0.233647	0.908438	1.026217	-0.192556	0.913939	1.180663	-0.275439	0.798779	0.800543	-0.083805	1.094602	0.510252	0.226484	0.987657	0.051978	0.226303	1.021602	0.043353	0.327348	1.166181	0.097195	0.271098	1.047849	0.528574	-0.300938	0.981233	0.036407	-0.288966	0.979229	0.038884	-0.406528	1.118160	0.118208	-0.378460	0.113959	0.057294	-0.077218	0.024862	0.081954	-0.081535	0.033232	0.061868	-0.128877	0.612781	0.519599	0.005367	0.663832	0.574714	-0.022980	0.698562	0.604551	0.013918
83	0.227777778	1.097321	1.005258	0.118502	1.098862	1.021780	-0.225877	1.233436	1.060028	0.032889	1.242064	1.060911	-0.136045	0.920999	1.496742	-0.094817	1.056806	1.381910	0.015562	1.053413	1.362295	-0.166380	0.657250	1.665617	-0.098057	0.578691	1.531159	-0.097513	0.698882	1.602980	0.012601	0.813239	1.421088	0.113262	0.963799	1.481123	0.065495	0.932819	1.099872	0.119180	0.945505	1.257668	0.166049	0.827869	0.859852	0.040637	NaN	NaN	NaN	0.928671	1.438386	-0.233661	0.908639	1.026401	-0.192992	0.914190	1.180858	-0.275708	0.798879	0.800579	-0.084665	1.094576	0.510267	0.226448	0.987652	0.051980	0.226305	1.021593	0.043368	0.327351	1.166165	0.097182	0.271096	1.047951	0.528585	-0.301022	0.981233	0.036396	-0.288983	0.979210	0.038877	-0.406533	1.118084	0.118151	-0.378533	0.113777	0.057537	-0.081931	0.024705	0.082262	-0.086494	0.033229	0.062248	-0.133807	0.612495	0.519547	0.003253	0.663748	0.574704	-0.025058	0.698286	0.604475	0.012294
84	0.230555556	1.097269	1.005229	0.118378	1.099094	1.021772	-0.226014	1.233446	1.060022	0.032873	1.242236	1.060876	-0.136061	0.921041	1.496727	-0.094785	1.056756	1.381816	0.015610	1.053538	1.362368	-0.166391	0.657283	1.665569	-0.098046	0.578751	1.531108	-0.097607	0.698893	1.602874	0.012573	0.813054	1.420810	0.113127	0.963650	1.480936	0.065561	0.932484	1.099615	0.118861	0.945239	1.257373	0.165879	0.827502	0.859694	0.039946	NaN	NaN	NaN	0.928820	1.438509	-0.233658	0.908876	1.026605	-0.193485	0.914439	1.181098	-0.276044	0.799016	0.800595	-0.085608	1.094564	0.510253	0.226380	0.987636	0.051974	0.226319	1.021598	0.043367	0.327358	1.166166	0.097175	0.271103	1.048029	0.528622	-0.301118	0.981205	0.036421	-0.288990	0.979210	0.038874	-0.406541	1.118175	0.118210	-0.378492	0.113524	0.058001	-0.086692	0.024557	0.082616	-0.091523	0.033332	0.062790	-0.138780	0.612081	0.519501	0.001032	0.663464	0.574660	-0.026792	0.698077	0.604332	0.010502
85	0.233333333	1.097188	1.005173	0.118239	1.099257	1.021747	-0.226127	1.233439	1.060004	0.032849	1.242385	1.060854	-0.136074	0.921077	1.496717	-0.094760	1.056685	1.381700	0.015645	1.053640	1.362427	-0.166401	0.657324	1.665509	-0.098049	0.578767	1.531067	-0.097716	0.698903	1.602764	0.012539	0.812906	1.420516	0.112962	0.963508	1.480734	0.065622	0.932157	1.099353	0.118534	0.944947	1.257082	0.165668	0.827192	0.859496	0.039228	NaN	NaN	NaN	0.929012	1.438655	-0.233676	0.908994	1.026736	-0.193928	0.914723	1.181370	-0.276349	0.799024	0.800650	-0.086488	1.094561	0.510278	0.226352	0.987629	0.051979	0.226325	1.021601	0.043355	0.327366	1.166166	0.097170	0.271123	1.048093	0.528635	-0.301205	0.981221	0.036401	-0.288971	0.979193	0.038867	-0.406535	1.118080	0.118165	-0.378577	0.113359	0.058350	-0.091773	0.024485	0.083049	-0.096555	0.033217	0.063283	-0.144033	0.611890	0.519428	-0.001262	0.663418	0.574769	-0.028910	0.697858	0.604160	0.008754
86	0.236111111	1.097137	1.005143	0.118114	1.099489	1.021731	-0.226263	1.233437	1.060001	0.032826	1.242550	1.060831	-0.136077	0.921104	1.496684	-0.094727	1.056654	1.381611	0.015695	1.053765	1.362490	-0.166401	0.657352	1.665450	-0.098048	0.578784	1.531022	-0.097798	0.698904	1.602637	0.012506	0.812710	1.420252	0.112793	0.963350	1.480524	0.065692	0.931823	1.099082	0.118200	0.944643	1.256753	0.165452	0.826867	0.859300	0.038512	NaN	NaN	NaN	0.929223	1.438794	-0.233700	0.909162	1.026875	-0.194337	0.914992	1.181587	-0.276674	0.799034	0.800680	-0.087370	1.094522	0.510255	0.226285	0.987639	0.051999	0.226328	1.021606	0.043363	0.327374	1.166164	0.097182	0.271122	1.048189	0.528646	-0.301279	0.981218	0.036399	-0.288985	0.979203	0.038885	-0.406525	1.118100	0.118149	-0.378586	0.113188	0.058673	-0.096904	0.024249	0.083475	-0.101871	0.033133	0.063950	-0.149310	0.611612	0.519346	-0.003559	0.663126	0.574670	-0.030854	0.697681	0.603990	0.006890
87	0.238888889	1.097116	1.005149	0.117972	1.099679	1.021698	-0.226389	1.233438	1.059992	0.032792	1.242676	1.060777	-0.136088	0.921143	1.496665	-0.094690	1.056566	1.381482	0.015733	1.053890	1.362565	-0.166426	0.657387	1.665402	-0.098059	0.578817	1.530968	-0.097894	0.698918	1.602540	0.012480	0.812547	1.419955	0.112633	0.963211	1.480326	0.065762	0.931501	1.098805	0.117880	0.944318	1.256425	0.165230	0.826507	0.859083	0.037711	NaN	NaN	NaN	0.929437	1.438951	-0.233700	0.909347	1.027002	-0.194826	0.915257	1.181804	-0.276999	0.799075	0.800695	-0.088322	1.094527	0.510257	0.226251	0.987654	0.051994	0.226320	1.021602	0.043345	0.327376	1.166173	0.097161	0.271123	1.048279	0.528662	-0.301376	0.981217	0.036401	-0.288987	0.979205	0.038864	-0.406540	1.118103	0.118157	-0.378615	0.113044	0.059116	-0.102040	0.024203	0.083872	-0.107116	0.033239	0.064447	-0.154724	0.611401	0.519267	-0.005969	0.662934	0.574666	-0.032931	0.697279	0.603934	0.005052
88	0.241666667	1.097035	1.005082	0.117838	1.099903	1.021665	-0.226527	1.233442	1.059983	0.032770	1.242841	1.060756	-0.136080	0.921183	1.496637	-0.094658	1.056510	1.381366	0.015784	1.054041	1.362643	-0.166432	0.657418	1.665347	-0.098069	0.578875	1.530908	-0.097977	0.698915	1.602429	0.012449	0.812376	1.419680	0.112439	0.963078	1.480108	0.065828	0.931114	1.098471	0.117510	0.943975	1.256061	0.164997	0.826104	0.858885	0.036922	NaN	NaN	NaN	0.929675	1.439126	-0.233721	0.909599	1.027161	-0.195314	0.915505	1.182049	-0.277331	0.799095	0.800717	-0.089347	1.094502	0.510255	0.226188	0.987659	0.051995	0.226339	1.021607	0.043349	0.327376	1.166172	0.097161	0.271122	1.048357	0.528663	-0.301453	0.981200	0.036396	-0.288990	0.979187	0.038870	-0.406544	1.118115	0.118142	-0.378626	0.112907	0.059445	-0.107394	0.024025	0.084402	-0.112690	0.033140	0.065095	-0.160360	0.611173	0.519150	-0.008448	0.662816	0.574678	-0.035156	0.697075	0.603785	0.003044
